<svg xmlns="http://www.w3.org/2000/svg" width="96" height="96" viewBox="0 0 96 96" role="img" aria-label="访客头像"><defs><linearGradient id="bg" x1="0" x2="1" y1="0" y2="1"><stop stop-color="#eef0ff"/><stop offset="1" stop-color="#dfe7ff"/></linearGradient><linearGradient id="shirt" x1="0" x2="1"><stop stop-color="#6575ee"/><stop offset="1" stop-color="#4e5ecf"/></linearGradient></defs><rect width="96" height="96" rx="28" fill="url(#bg)"/><circle cx="48" cy="38" r="18" fill="#f3c5a8"/><path d="M28 89c2-17 10-28 20-28s18 11 20 28" fill="url(#shirt)"/><path d="M31 34c1-14 9-22 20-22 11 0 18 8 19 22-8-4-13-9-16-15-5 8-13 13-23 15Z" fill="#30374c"/><circle cx="41" cy="40" r="1.6" fill="#4a4350"/><circle cx="55" cy="40" r="1.6" fill="#4a4350"/><path d="M43 49c3 2 7 2 10 0" fill="none" stroke="#b56f66" stroke-width="2" stroke-linecap="round"/></svg>